<svg width="100" height="100" viewBox="0 0 100 100" fill="none" xmlns="http://www.w3.org/2000/svg">
<g clip-path="url(#clip0)">
<path d="M0 82.6247V9.03514C0 7.92388 0.900805 7.02307 2.01207 7.02307H97.9879C99.0992 7.02307 100 7.92388 100 9.03514V82.6245C100 83.7357 99.0992 84.6365 97.9879 84.6365H2.01207C0.900805 84.6367 0 83.7357 0 82.6247Z" fill="#FED23A"/>
<path d="M6.17188 78.4785H93.8262V13.1812H6.17188V78.4785Z" fill="#FFF9E9"/>
<path d="M85.7793 13.1812H93.8276V78.4785H85.7793V13.1812Z" fill="#FFF4D6"/>
<path d="M18.0598 27.3221H70.0814C70.915 27.3221 71.5904 26.6464 71.5904 25.813C71.5904 24.9796 70.915 24.304 70.0814 24.304H18.0598C17.2262 24.304 16.5508 24.9796 16.5508 25.813C16.5508 26.6464 17.2262 27.3221 18.0598 27.3221Z" fill="#FAE19E"/>
<path d="M81.9379 33.4824H18.0598C17.2262 33.4824 16.5508 34.1581 16.5508 34.9915C16.5508 35.8249 17.2262 36.5005 18.0598 36.5005H81.9381C82.7717 36.5005 83.4472 35.8249 83.4472 34.9915C83.4472 34.1581 82.7715 33.4824 81.9379 33.4824Z" fill="#FAE19E"/>
<path d="M54.3524 42.6611H18.0598C17.2262 42.6611 16.5508 43.3368 16.5508 44.1702C16.5508 45.0036 17.2262 45.6792 18.0598 45.6792H54.3524C55.186 45.6792 55.8615 45.0036 55.8615 44.1702C55.8615 43.3368 55.1858 42.6611 54.3524 42.6611Z" fill="#FAE19E"/>
<path d="M43.7311 65.1876C41.1697 65.1946 38.6084 65.2006 36.047 65.2049C35.2242 65.2063 34.4013 65.2073 33.5786 65.2079C32.949 65.2083 32.2695 65.3196 31.7375 64.9131C31.1422 64.4584 30.9373 63.8161 30.8011 63.1087C30.5059 61.5765 28.2959 61.7717 27.8908 63.1087C27.7116 63.7009 26.8061 65.396 26.0152 65.2574C25.5961 65.184 25.413 64.5375 25.2581 64.2027C24.9564 63.551 24.7367 62.8602 24.5486 62.1681C23.7542 59.2437 23.5957 56.1904 23.0987 53.2109C22.8106 51.4832 20.177 51.9717 20.1345 53.6121C19.9993 58.8377 19.145 63.9916 17.2846 68.8896C16.5943 70.7071 19.5108 71.493 20.1949 69.692C20.9122 67.8035 21.4816 65.8697 21.9234 63.9071C22.1605 64.6222 22.4432 65.3236 22.7882 66.0059C23.6695 67.7475 25.4669 68.7779 27.39 68.0033C28.0764 67.7268 28.7025 67.2435 29.2355 66.6554C29.3108 66.7421 29.3866 66.8278 29.4659 66.9079C30.9295 68.3854 32.8546 68.2272 34.7691 68.2248C37.7564 68.221 40.7438 68.2139 43.7313 68.2057C45.6729 68.2002 45.6766 65.1821 43.7311 65.1876Z" fill="#54B1FF"/>
<path d="M77.1402 92.9767L72.8142 90.9646L68.4883 92.9767V67.021H77.1402V92.9767Z" fill="#FFABE7"/>
<path d="M72.8159 72.0386C71.2893 72.0386 70.2897 69.4402 68.9624 68.8887C67.5863 68.3171 65.0503 69.4247 64.0133 68.3857C62.9762 67.3468 64.0819 64.8062 63.5113 63.4277C62.9607 62.0979 60.3672 61.0965 60.3672 59.5672C60.3672 58.038 62.9607 57.0366 63.5113 55.7066C64.0819 54.3281 62.9762 51.7875 64.0133 50.7487C65.0503 49.7098 67.5863 50.8175 68.9621 50.2458C70.2895 49.6943 71.2891 47.0959 72.8157 47.0959C74.3422 47.0959 75.3418 49.6943 76.6692 50.2458C78.0452 50.8175 80.5813 49.7098 81.6183 50.7489C82.6553 51.7877 81.5497 54.3283 82.1203 55.7068C82.6708 57.0366 85.2644 58.038 85.2644 59.5674C85.2644 61.0965 82.6708 62.0979 82.1203 63.4279C81.5497 64.8064 82.6553 67.347 81.6183 68.3859C80.5813 69.4247 78.0452 68.3171 76.6694 68.8887C75.342 69.4402 74.3424 72.0386 72.8159 72.0386Z" fill="#FF6ED4"/>
<path d="M82.1198 55.7068C81.5492 54.3283 82.6548 51.7877 81.6178 50.7489C80.5808 49.71 78.0447 50.8175 76.6687 50.2458C75.3413 49.6943 74.3417 47.0959 72.8152 47.0959C71.2886 47.0959 70.289 49.6943 68.9616 50.2458C68.9067 50.2686 68.8494 50.2879 68.791 50.3056C70.1969 50.7318 72.5737 49.7513 73.5693 50.7489C74.6063 51.7877 73.5007 54.3283 74.0713 55.7068C74.6218 57.0366 77.2154 58.038 77.2154 59.5674C77.2154 61.0968 74.6218 62.0982 74.0713 63.4279C73.5007 64.8064 74.6063 67.3471 73.5693 68.3859C72.5737 69.3833 70.1969 68.403 68.791 68.8292C68.8494 68.8469 68.9067 68.8662 68.9616 68.8889C70.289 69.4404 71.2886 72.0388 72.8152 72.0388C74.3417 72.0388 75.3411 69.4404 76.6687 68.8889C78.0447 68.3173 80.5808 69.4249 81.6176 68.3859C82.6546 67.3471 81.549 64.8064 82.1196 63.4279C82.6701 62.0982 85.2637 61.0968 85.2637 59.5674C85.2639 58.038 82.6703 57.0366 82.1198 55.7068Z" fill="#FF5CCF"/>
<path d="M72.8129 63.9524C75.2347 63.9524 77.198 61.9891 77.198 59.5672C77.198 57.1454 75.2347 55.1821 72.8129 55.1821C70.391 55.1821 68.4277 57.1454 68.4277 59.5672C68.4277 61.9891 70.391 63.9524 72.8129 63.9524Z" fill="#FFABE7"/>
</g>
<defs>
<clipPath id="clip0">
<rect width="100" height="100" fill="white"/>
</clipPath>
</defs>
</svg>
