<svg width="100" height="100" viewBox="0 0 100 100" fill="none" xmlns="http://www.w3.org/2000/svg">
<path d="M50 100C77.6142 100 100 77.6142 100 50C100 22.3858 77.6142 0 50 0C22.3858 0 0 22.3858 0 50C0 77.6142 22.3858 100 50 100Z" fill="#EF5261"/>
<path d="M84.8946 49.1024C84.8919 50.4774 84.6168 51.8382 84.0854 53.1063C83.5539 54.3744 82.7766 55.5246 81.7982 56.4907C80.8198 57.4568 79.6597 58.2194 78.3849 58.7348C77.1102 59.2501 75.746 59.5078 74.3711 59.493H25.3633C22.6289 59.4634 20.017 58.3549 18.0959 56.4089C16.1747 54.4629 15.1 51.8369 15.1055 49.1024C15.105 46.588 16.0276 44.1608 17.6981 42.2815C19.3686 40.4022 21.6708 39.2014 24.168 38.9071C23.4361 37.6048 23.0539 36.1353 23.0586 34.6415C23.057 32.8887 23.579 31.1755 24.5577 29.7215C25.5364 28.2675 26.9272 27.1391 28.5516 26.4809C30.1761 25.8227 31.9601 25.6648 33.6749 26.0275C35.3896 26.3902 36.957 27.2569 38.1758 28.5165C38.9133 25.9086 40.5042 23.6235 42.6941 22.0269C44.8839 20.4303 47.5461 19.6144 50.2545 19.7098C52.963 19.8052 55.5611 20.8064 57.6332 22.5532C59.7053 24.2999 61.1315 26.6913 61.6836 29.3446C63.1051 28.4843 64.7508 28.0671 66.4105 28.1464C68.0702 28.2257 69.6686 28.7977 71.0017 29.7896C72.3348 30.7814 73.342 32.148 73.8948 33.715C74.4477 35.2819 74.521 36.978 74.1055 38.5868C74.1914 38.579 74.2852 38.579 74.3711 38.579C75.7531 38.5789 77.1216 38.851 78.3984 39.3798C79.6752 39.9086 80.8353 40.6838 81.8125 41.661C82.7898 42.6382 83.5649 43.7983 84.0937 45.0751C84.6225 46.3519 84.8947 47.7204 84.8946 49.1024Z" fill="#EEEFEE"/>
<path d="M61.168 66.2258L50.0031 80.2883L38.832 66.2258H44.5016V46.7922H55.3086V66.2258H61.168Z" fill="#F6C863"/>
</svg>
