<svg width="100" height="100" viewBox="0 0 100 100" fill="none" xmlns="http://www.w3.org/2000/svg">
<g clip-path="url(#clip0)">
<path d="M23.4275 32.839H4.12246C3.28359 32.839 2.60352 32.1589 2.60352 31.32V27.0585C2.60352 20.8886 7.60526 15.8868 13.7752 15.8868C19.9451 15.8868 24.9468 20.8886 24.9468 27.0585V31.32C24.9464 32.1591 24.2666 32.839 23.4275 32.839Z" fill="#C3DA40"/>
<path d="M34.7574 70.6652C32.5932 69.2363 31.2029 67.5984 30.6248 65.7967C26.9822 64.25 24.6309 60.6305 24.6309 56.5629C24.6309 51.058 28.9689 46.5793 34.3015 46.5793H46.6093C51.9418 46.5793 56.28 51.058 56.28 56.5629C56.28 62.0678 51.9419 66.5463 46.6093 66.5463H37.0652C36.9832 67.3701 37.0164 68.2277 37.1638 69.0969L37.6062 71.7059C37.6672 72.0652 37.2701 72.324 36.966 72.1232L34.7574 70.6652Z" fill="#FF62A7"/>
<path d="M56.2787 56.5629C56.2787 51.058 51.9406 46.5793 46.608 46.5793H34.3002C32.9121 46.5793 31.5928 46.8852 30.3984 47.4313C30.9123 55.6961 37.933 62.152 46.3009 62.152H54.6171C55.6656 60.5561 56.2787 58.6319 56.2787 56.5629Z" fill="#FC5479"/>
<path d="M60.1323 63.5517C60.4403 62.2257 60.5301 60.9242 60.4 59.682H48.4506C41.7309 59.682 36.1233 54.3459 36.021 47.6267C35.9167 40.7881 41.4495 35.1914 48.2647 35.1914H63.7116C70.4455 35.1914 76.0485 40.556 76.1274 47.2896C76.1867 52.3431 73.1916 56.8545 68.5266 58.7677C67.5223 61.8087 64.6655 63.9767 62.4401 65.2619L60.1475 66.5857C59.8319 66.7681 59.4508 66.4857 59.5333 66.1306L60.1323 63.5517Z" fill="#31D2F7"/>
<path d="M46.0298 50.9531C45.9255 44.1142 51.4583 38.5178 58.2735 38.5178H72.2014C69.9694 36.4533 66.9744 35.1914 63.7116 35.1914H48.2647C41.4495 35.1914 35.9167 40.7881 36.021 47.6267C36.1235 54.3457 41.7309 59.682 48.4506 59.682H49.9604C47.5936 57.4957 46.0827 54.4084 46.0298 50.9531Z" fill="#13ACE8"/>
<path d="M95.7869 32.839H76.4818C75.643 32.839 74.9629 32.1589 74.9629 31.32V27.0585C74.9629 20.8886 79.9646 15.8868 86.1346 15.8868C92.3045 15.8868 97.3062 20.8886 97.3062 27.0585V31.32C97.3058 32.1591 96.6257 32.839 95.7869 32.839Z" fill="#FFCF59"/>
<path d="M23.4275 92.5126H4.12246C3.28359 92.5126 2.60352 91.8325 2.60352 90.9935V86.732C2.60352 80.562 7.60526 75.5603 13.7752 75.5603C19.9451 75.5603 24.9468 80.562 24.9468 86.732V90.9935C24.9464 91.8323 24.2666 92.5126 23.4275 92.5126Z" fill="#FF62A7"/>
<path d="M95.7869 92.5126H76.4818C75.643 92.5126 74.9629 91.8325 74.9629 90.9935V86.732C74.9629 80.562 79.9646 75.5603 86.1346 75.5603C92.3045 75.5603 97.3062 80.562 97.3062 86.732V90.9935C97.3058 91.8323 96.6257 92.5126 95.7869 92.5126Z" fill="#31D2F7"/>
<path d="M11.1883 31.32V27.0585C11.1883 22.4099 14.0283 18.4255 18.0675 16.7427C16.7459 16.1921 15.2963 15.8868 13.7752 15.8868C7.60526 15.8868 2.60352 20.8886 2.60352 27.0585V31.32C2.60352 32.1589 3.28359 32.839 4.12265 32.839H12.7072C11.8683 32.839 11.1883 32.1591 11.1883 31.32Z" fill="#ADBC15"/>
<path d="M83.5476 31.32V27.0585C83.5476 22.4099 86.3877 18.4255 90.4269 16.7427C89.1052 16.1921 87.6556 15.8868 86.1346 15.8868C79.9646 15.8868 74.9629 20.8886 74.9629 27.0585V31.32C74.9629 32.1589 75.643 32.839 76.482 32.839H85.0666C84.2277 32.839 83.5476 32.1591 83.5476 31.32Z" fill="#FFB55C"/>
<path d="M11.1883 90.9935V86.732C11.1883 82.0833 14.0283 78.0988 18.0675 76.4162C16.7459 75.8658 15.2963 75.5603 13.7752 75.5603C7.60526 75.5603 2.60352 80.562 2.60352 86.732V90.9935C2.60352 91.8323 3.28359 92.5126 4.12265 92.5126H12.7072C11.8683 92.5126 11.1883 91.8323 11.1883 90.9935Z" fill="#FC5479"/>
<path d="M83.5476 90.9935V86.732C83.5476 82.0833 86.3877 78.0988 90.4269 76.4162C89.1052 75.8658 87.6556 75.5603 86.1346 75.5603C79.9646 75.5603 74.9629 80.562 74.9629 86.732V90.9935C74.9629 91.8323 75.643 92.5126 76.482 92.5126H85.0666C84.2277 92.5126 83.5476 91.8323 83.5476 90.9935Z" fill="#13ACE8"/>
<path d="M13.6769 22.2471C9.68515 22.2471 6.4375 18.9994 6.4375 15.0075C6.4375 11.0155 9.68515 7.76782 13.6769 7.76782C17.6689 7.76782 20.9166 11.0155 20.9166 15.0075C20.9166 18.9994 17.6689 22.2471 13.6769 22.2471Z" fill="#FAD393"/>
<path d="M86.0363 22.2471C82.0445 22.2471 78.7969 18.9994 78.7969 15.0075C78.7969 11.0155 82.0445 7.76782 86.0363 7.76782C90.0283 7.76782 93.2759 11.0155 93.2759 15.0075C93.2759 18.9994 90.0283 22.2471 86.0363 22.2471Z" fill="#FAD393"/>
<path d="M13.6769 81.9207C9.68515 81.9207 6.4375 78.6728 6.4375 74.681C6.4375 70.6893 9.68515 67.4414 13.6769 67.4414C17.6689 67.4414 20.9166 70.6891 20.9166 74.681C20.9166 78.673 17.6689 81.9207 13.6769 81.9207Z" fill="#FAD393"/>
<path d="M86.0363 81.9207C82.0445 81.9207 78.7969 78.6728 78.7969 74.681C78.7969 70.6893 82.0445 67.4414 86.0363 67.4414C90.0283 67.4414 93.2759 70.6891 93.2759 74.681C93.2759 78.673 90.0283 81.9207 86.0363 81.9207Z" fill="#FAD393"/>
<path d="M13.2748 15.0077C13.2748 12.2514 14.8232 9.85063 17.0957 8.62798C16.0769 8.07993 14.9127 7.76782 13.6769 7.76782C9.68515 7.76782 6.4375 11.0155 6.4375 15.0075C6.4375 18.9994 9.68515 22.2471 13.6769 22.2471C14.9127 22.2471 16.0767 21.9352 17.0957 21.3869C14.8232 20.1647 13.2748 17.7639 13.2748 15.0077Z" fill="#EDB769"/>
<path d="M85.6342 15.0077C85.6342 12.2514 87.1826 9.85063 89.4551 8.62798C88.4361 8.07993 87.2721 7.76782 86.0363 7.76782C82.0445 7.76782 78.7969 11.0155 78.7969 15.0075C78.7969 18.9994 82.0445 22.2471 86.0363 22.2471C87.2721 22.2471 88.4361 21.9352 89.4551 21.3869C87.1828 20.1647 85.6342 17.7639 85.6342 15.0077Z" fill="#EDB769"/>
<path d="M13.2748 74.6812C13.2748 71.925 14.8232 69.5242 17.0957 68.3016C16.0769 67.7535 14.9127 67.4414 13.6769 67.4414C9.68515 67.4414 6.4375 70.6891 6.4375 74.681C6.4375 78.673 9.68515 81.9207 13.6769 81.9207C14.9127 81.9207 16.0767 81.6088 17.0957 81.0605C14.8232 79.8381 13.2748 77.4373 13.2748 74.6812Z" fill="#EDB769"/>
<path d="M85.6342 74.6812C85.6342 71.925 87.1826 69.5242 89.4551 68.3016C88.4361 67.7535 87.2721 67.4414 86.0363 67.4414C82.0445 67.4414 78.7969 70.6891 78.7969 74.681C78.7969 78.673 82.0445 81.9207 86.0363 81.9207C87.2721 81.9207 88.4361 81.6088 89.4551 81.0605C87.1828 79.8381 85.6342 77.4373 85.6342 74.6812Z" fill="#EDB769"/>
<path d="M25.7557 9.79914C26.033 9.79914 26.3139 9.72805 26.5709 9.57903C28.1332 8.67219 29.7644 7.84876 31.4191 7.13118C32.2435 6.77356 32.6221 5.81575 32.2644 4.99134C31.907 4.16712 30.949 3.78861 30.1248 4.14603C28.3543 4.9138 26.609 5.79486 24.9375 6.76497C24.1602 7.21614 23.8961 8.21145 24.3471 8.9886C24.649 9.50872 25.1947 9.79914 25.7557 9.79914Z" fill="black"/>
<path d="M58.0443 3.98263C59.8244 4.29122 61.6041 4.70821 63.3343 5.22208C63.489 5.26798 63.6449 5.28985 63.7984 5.28985C64.5 5.28985 65.1472 4.83243 65.3574 4.1256C65.6134 3.26427 65.1224 2.35861 64.2611 2.10295C62.4093 1.55314 60.505 1.10666 58.6004 0.776582C57.7158 0.623262 56.8728 1.21623 56.7195 2.10158C56.566 2.98712 57.1591 3.82911 58.0443 3.98263Z" fill="black"/>
<path d="M47.1095 3.37834C47.1417 3.37834 47.1742 3.37756 47.2068 3.37541C48.1302 3.32092 49.0683 3.29338 49.9951 3.29338C49.9968 3.29338 49.9984 3.29338 49.9999 3.29338C50.8806 3.29338 51.7703 3.31818 52.6443 3.36701C53.546 3.41838 54.3093 2.73049 54.3593 1.83342C54.4091 0.936351 53.7228 0.168384 52.8257 0.118384C51.8915 0.0662353 50.9408 0.0396729 50.0003 0.0396729C49.9984 0.0396729 49.9968 0.0396729 49.9949 0.0396729C49.0048 0.0396729 48.0023 0.0689697 47.0156 0.127368C46.1187 0.180298 45.4343 0.950218 45.4872 1.84709C45.5378 2.71154 46.2548 3.37834 47.1095 3.37834Z" fill="black"/>
<path d="M96.6798 37.2033C95.8058 37.4115 95.2661 38.289 95.4743 39.1631C95.8925 40.9179 96.2115 42.7181 96.423 44.5136C96.5204 45.3414 97.2232 45.9505 98.0365 45.9505C98.1001 45.9505 98.1642 45.9468 98.2288 45.9392C99.121 45.8341 99.7593 45.0257 99.6542 44.1334C99.4282 42.2127 99.0868 40.2867 98.6396 38.4092C98.431 37.5347 97.554 36.9945 96.6798 37.2033Z" fill="black"/>
<path d="M93.9403 66.0282C93.6331 66.8725 94.0684 67.8061 94.913 68.1134C95.0965 68.1804 95.2842 68.2118 95.4692 68.2118C96.1338 68.2118 96.7577 67.8014 96.9981 67.1407C97.6596 65.3235 98.2198 63.4481 98.6641 61.5665C98.8704 60.6921 98.3288 59.8157 97.4543 59.6095C96.5811 59.4034 95.7036 59.9442 95.4971 60.8192C95.0819 62.5776 94.5583 64.3302 93.9403 66.0282Z" fill="black"/>
<path d="M68.4458 7.07316C70.1042 7.78605 71.7392 8.60539 73.306 9.50812C73.5622 9.65558 73.8411 9.7257 74.1169 9.7257C74.6796 9.7257 75.2269 9.43332 75.5279 8.91086C75.9765 8.13234 75.7093 7.13762 74.9306 6.68899C73.2544 5.72297 71.505 4.84661 69.7306 4.08391C68.9046 3.72805 67.9482 4.11048 67.5935 4.93606C67.2388 5.76145 67.6204 6.71809 68.4458 7.07316Z" fill="black"/>
<path d="M2.55654 59.6604C1.68232 59.8679 1.1417 60.7446 1.34892 61.6188C1.79502 63.4997 2.35693 65.3735 3.01962 67.1883C3.26044 67.8483 3.88408 68.2577 4.54794 68.2577C4.7331 68.2577 4.92177 68.2258 5.10575 68.1585C5.9497 67.8505 6.38427 66.9165 6.07606 66.0723C5.45712 64.3766 4.93173 62.6259 4.51493 60.8683C4.30751 59.9938 3.43251 59.4532 2.55654 59.6604Z" fill="black"/>
<path d="M36.0544 5.33433C36.2095 5.33433 36.3673 5.31207 36.5236 5.265C38.2515 4.74566 40.03 4.32281 41.8095 4.00836C42.6945 3.85191 43.2851 3.00797 43.1286 2.12321C42.9722 1.23825 42.129 0.648015 41.2435 0.804069C39.3394 1.1404 37.4363 1.59293 35.5867 2.14879C34.7261 2.40758 34.2384 3.31481 34.497 4.17516C34.7087 4.87984 35.355 5.33433 36.0544 5.33433Z" fill="black"/>
<path d="M98.373 48.3098C97.4744 48.3098 96.7463 49.0381 96.7463 49.9366V50.0395C96.7463 51.8516 96.6414 53.6776 96.4347 55.4668C96.3316 56.3594 96.9715 57.1666 97.8638 57.2698C97.9275 57.2772 97.9902 57.2807 98.0529 57.2807C98.8677 57.2807 99.5711 56.6696 99.667 55.8407C99.8881 53.928 100 51.976 100 50.0397V49.9368C99.9998 49.0381 99.2715 48.3098 98.373 48.3098Z" fill="black"/>
<path d="M58.1407 96.0793C56.3659 96.3908 54.5494 96.602 52.7418 96.7064C51.845 96.7584 51.1598 97.5275 51.2118 98.4244C51.2616 99.2894 51.9789 99.9572 52.8344 99.9572C52.8659 99.9572 52.8981 99.9564 52.9299 99.9545C54.8623 99.8428 56.8051 99.6172 58.7033 99.2836C59.5883 99.1281 60.1799 98.285 60.0242 97.3998C59.8692 96.5152 59.0252 95.9236 58.1407 96.0793Z" fill="black"/>
<path d="M47.3059 96.7093C45.4981 96.6066 43.6817 96.3974 41.9071 96.0878C41.0204 95.9329 40.1792 96.5257 40.0245 97.4107C39.87 98.2958 40.4624 99.1386 41.3473 99.2931C43.2458 99.6243 45.1884 99.8482 47.1216 99.9579C47.1528 99.9597 47.1841 99.9605 47.2153 99.9605C48.0716 99.9605 48.7891 99.2913 48.8382 98.4259C48.8889 97.5286 48.203 96.7603 47.3059 96.7093Z" fill="black"/>
<path d="M36.6189 94.8425C34.8884 94.3265 33.1694 93.7019 31.5097 92.986C30.6849 92.6306 29.7273 93.0107 29.3718 93.8359C29.0157 94.6609 29.3964 95.6181 30.2214 95.9737C31.9978 96.7396 33.8372 97.4077 35.6892 97.9601C35.8442 98.0064 36.0007 98.0284 36.1548 98.0284C36.8556 98.0284 37.5026 97.5718 37.7134 96.8661C37.9698 96.0054 37.48 95.0993 36.6189 94.8425Z" fill="black"/>
<path d="M1.75858 46.0929C1.82167 46.1001 1.88397 46.1037 1.94589 46.1037C2.76151 46.1037 3.46522 45.4916 3.55995 44.6619C3.76561 42.8656 4.07889 41.0644 4.49139 39.3084C4.69666 38.4336 4.15428 37.558 3.27948 37.3525C2.40487 37.1465 1.5289 37.6894 1.32343 38.5644C0.882413 40.4431 0.547062 42.3701 0.32714 44.2916C0.224797 45.1843 0.865811 45.9908 1.75858 46.0929Z" fill="black"/>
<path d="M68.5352 92.9678C66.8766 93.6848 65.159 94.3108 63.4301 94.8285C62.5693 95.0863 62.0807 95.993 62.3383 96.8537C62.5492 97.559 63.1961 98.0145 63.8963 98.0145C64.0508 98.0145 64.2078 97.9922 64.3637 97.9457C66.2141 97.3916 68.0519 96.7217 69.8267 95.9543C70.6514 95.5977 71.031 94.6401 70.6742 93.8154C70.3176 92.9906 69.3603 92.6112 68.5352 92.9678Z" fill="black"/>
<path d="M2.14336 57.3207C3.03593 57.2166 3.6748 56.4088 3.5707 55.5162C3.3621 53.7273 3.25546 51.9014 3.25371 50.0891C3.25292 49.191 2.52461 48.4639 1.62695 48.4639C1.62656 48.4639 1.62597 48.4639 1.62519 48.4639C0.726757 48.4648 -0.00078062 49.1937 6.28605e-07 50.0924C0.00195375 52.0289 0.116016 53.9807 0.339062 55.8932C0.435742 56.7217 1.13867 57.3316 1.95273 57.3316C2.01562 57.3316 2.07949 57.3281 2.14336 57.3207Z" fill="black"/>
<path d="M4.37753 34.1366H23.174C25.0806 34.1366 26.6318 32.5854 26.6318 30.6788V26.7587C26.6318 25.4569 26.4205 24.1772 26.0033 22.9551C25.7414 22.188 24.906 21.7784 24.1402 22.0401C23.3728 22.302 22.9632 23.136 23.2252 23.9034C23.5378 24.8194 23.6962 25.7803 23.6962 26.7588V30.679C23.6962 30.967 23.4621 31.2012 23.174 31.2012H4.37734C4.08925 31.2012 3.85507 30.967 3.85507 30.679V26.7588C3.85507 24.2342 4.93925 21.8425 6.79784 20.1757C8.3703 22.2639 10.8693 23.6171 13.6789 23.6171C18.4261 23.6171 22.2884 19.7548 22.2884 15.0075C22.2884 10.2602 18.4263 6.39795 13.6793 6.39795C8.93221 6.39795 5.06972 10.2602 5.06972 15.0075C5.06972 15.871 5.19882 16.7044 5.43651 17.4913C2.59824 19.7163 0.919922 23.1341 0.919922 26.759V30.6792C0.919727 32.5854 2.4709 34.1366 4.37753 34.1366ZM13.6793 9.3333C16.808 9.3333 19.3535 11.8786 19.3535 15.0075C19.3535 18.1364 16.8082 20.6817 13.6793 20.6817C10.5508 20.6817 8.00526 18.1364 8.00526 15.0075C8.00526 11.8786 10.5504 9.3333 13.6793 9.3333Z" fill="black"/>
<path d="M73.3691 26.7589V30.679C73.3691 32.5856 74.9201 34.1368 76.8269 34.1368H95.6234C97.53 34.1368 99.0812 32.5856 99.0812 30.679V26.7589C99.0812 25.4571 98.8699 24.1775 98.4527 22.9554C98.1908 22.1882 97.3558 21.7786 96.5896 22.0404C95.8222 22.3023 95.4126 23.1362 95.6746 23.9036C95.9871 24.8196 96.1457 25.7806 96.1457 26.7591V30.6792C96.1457 30.9673 95.9115 31.2015 95.6234 31.2015H76.8269C76.5389 31.2015 76.3047 30.9673 76.3047 30.6792V26.7591C76.3047 24.2345 77.3889 21.8427 79.2474 20.1759C80.8199 22.2642 83.3189 23.6173 86.1285 23.6173C90.8757 23.6173 94.738 19.755 94.738 15.0077C94.738 10.2605 90.8757 6.39819 86.1285 6.39819C81.3812 6.39819 77.5191 10.2605 77.5191 15.0077C77.5191 15.8712 77.6482 16.7046 77.8859 17.4915C75.0473 19.7163 73.3691 23.1339 73.3691 26.7589ZM86.1283 9.33334C89.257 9.33334 91.8025 11.8787 91.8025 15.0076C91.8025 18.1365 89.2572 20.6818 86.1283 20.6818C82.9998 20.6818 80.4543 18.1365 80.4543 15.0076C80.4543 11.8787 82.9998 9.33334 86.1283 9.33334Z" fill="black"/>
<path d="M96.5894 81.5848C95.822 81.8467 95.4125 82.6807 95.6744 83.4481C95.9869 84.3641 96.1455 85.3248 96.1455 86.3035V90.2236C96.1455 90.5117 95.9113 90.7459 95.6232 90.7459H76.8268C76.5387 90.7459 76.3045 90.5117 76.3045 90.2236V86.3035C76.3045 83.7789 77.3887 81.3871 79.2472 79.7203C80.8197 81.8086 83.3187 83.1617 86.1283 83.1617C90.8755 83.1617 94.7378 79.2994 94.7378 74.5522C94.7378 69.8049 90.8755 65.9426 86.1283 65.9426C81.381 65.9426 77.5189 69.8049 77.5189 74.5522C77.5189 75.4157 77.648 76.249 77.8857 77.036C75.0475 79.261 73.3691 82.6787 73.3691 86.3037V90.2238C73.3691 92.1305 74.9201 93.6816 76.8269 93.6816H95.6234C97.53 93.6816 99.0812 92.1307 99.0812 90.2238V86.3037C99.0812 85.002 98.8699 83.7223 98.4527 82.5002C98.1906 81.7324 97.3554 81.3227 96.5894 81.5848ZM86.1283 68.8778C89.257 68.8778 91.8025 71.4231 91.8025 74.552C91.8025 77.6809 89.2572 80.2262 86.1283 80.2262C82.9998 80.2262 80.4543 77.6809 80.4543 74.552C80.4543 71.4231 82.9998 68.8778 86.1283 68.8778Z" fill="black"/>
<path d="M24.1402 81.5848C23.3728 81.8467 22.9632 82.6807 23.2252 83.4481C23.5378 84.3641 23.6962 85.3248 23.6962 86.3035V90.2236C23.6962 90.5117 23.4621 90.7459 23.174 90.7459H4.37753C4.08945 90.7459 3.85527 90.5117 3.85527 90.2236V86.3035C3.85527 83.7789 4.93945 81.3871 6.79804 79.7203C8.37049 81.8086 10.8695 83.1617 13.6791 83.1617C18.4263 83.1617 22.2886 79.2994 22.2886 74.5522C22.2886 69.8049 18.4263 65.9426 13.6791 65.9426C8.93182 65.9426 5.06972 69.8049 5.06972 74.5522C5.06972 75.4157 5.19882 76.249 5.43651 77.036C2.59824 79.261 0.919922 82.6787 0.919922 86.3037V90.2238C0.919922 92.1305 2.47109 93.6816 4.37773 93.6816H23.1742C25.0808 93.6816 26.632 92.1307 26.632 90.2238V86.3037C26.632 85.002 26.4207 83.7223 26.0035 82.5002C25.7412 81.7324 24.9058 81.3227 24.1402 81.5848ZM13.6793 68.8778C16.808 68.8778 19.3535 71.4231 19.3535 74.552C19.3535 77.6809 16.8082 80.2262 13.6793 80.2262C10.5508 80.2262 8.00526 77.6809 8.00526 74.552C8.00526 71.4231 10.5504 68.8778 13.6793 68.8778Z" fill="black"/>
<path d="M63.8812 33.8212H48.2628C41.514 33.8212 35.8992 38.7579 34.833 45.2094H34.3002C28.2125 45.2094 23.2598 50.3026 23.2598 56.5629C23.2598 60.9733 25.7018 64.923 29.5351 66.8047C31.4193 71.3687 37.298 73.5578 37.5584 73.6525C37.7224 73.7125 37.8924 73.7414 38.0607 73.7414C38.4621 73.7414 38.8549 73.5764 39.1379 73.2709C39.5394 72.8373 39.6418 72.2051 39.3974 71.667C38.8066 70.3658 38.4744 69.1092 38.4041 67.9162H46.608C51.1456 67.9162 55.0511 65.0856 56.7464 61.0518H59.0833C59.0421 62.659 58.606 64.3578 57.7802 66.1195C57.5292 66.6551 57.6242 67.2893 58.021 67.7275C58.3044 68.0404 58.7021 68.2102 59.1093 68.2102C59.273 68.2102 59.4378 68.1828 59.5976 68.1264C59.9236 68.0113 67.3327 65.3395 69.6066 59.7899C74.4214 57.5627 77.4966 52.7838 77.4966 47.4366C77.4966 39.929 71.3888 33.8212 63.8812 33.8212ZM67.8943 57.3338C67.4968 57.4953 67.1859 57.8168 67.055 58.2254C66.2314 60.7969 63.7241 62.7111 61.6556 63.9057C62.0111 62.3756 62.1087 60.8789 61.9456 59.4295C61.8616 58.6836 61.2366 58.1162 60.4861 58.1162H48.263C46.8576 58.1162 45.5158 57.8416 44.2859 57.3453C43.7414 57.1256 43.1193 57.2453 42.7041 57.6606L42.6832 57.6815C41.9451 58.4195 42.2031 59.669 43.1707 60.0613C44.7443 60.6992 46.463 61.0516 48.2628 61.0516H53.4589C52.0216 63.4104 49.4884 64.9805 46.6076 64.9805H36.9754C36.2312 64.9805 35.5996 65.5377 35.5176 66.2773C35.4064 67.2801 35.4404 68.309 35.6183 69.3584C34.1935 68.4178 32.6726 67.0586 32.1137 65.3182C31.9781 64.8959 31.6789 64.5416 31.2699 64.3703C28.1867 63.0779 26.1947 60.0131 26.1947 56.5629C26.1947 51.9213 29.8305 48.145 34.2998 48.145H34.6662C34.7453 49.6791 35.0803 51.1465 35.6285 52.5061C36.0199 53.477 37.2703 53.7397 38.0105 52.9994C38.0177 52.9922 38.025 52.985 38.032 52.978C38.4455 52.5645 38.5675 51.945 38.3494 51.4024C37.8283 50.1065 37.5529 48.6864 37.5855 47.1987C37.7138 41.3692 42.583 36.7569 48.4138 36.7569H63.7015C69.595 36.7569 74.5794 41.578 74.5608 47.4713C74.5472 51.8254 71.9333 55.6942 67.8943 57.3338Z" fill="black"/>
</g>
<defs>
<clipPath id="clip0">
<rect width="100" height="100" fill="white"/>
</clipPath>
</defs>
</svg>
