<svg width="100" height="100" viewBox="0 0 100 100" fill="none" xmlns="http://www.w3.org/2000/svg">
<path d="M97.227 90.3813C97.227 94.1941 94.1074 97.3137 90.2946 97.3137H9.53202C5.71919 97.3137 2.59961 94.1941 2.59961 90.3813V9.61869C2.59961 5.80586 5.71919 2.68628 9.53202 2.68628H90.4679C94.2807 2.68628 97.4003 5.80586 97.4003 9.61869V90.3813H97.227Z" fill="#F7B208"/>
<path d="M2.59961 9.61869C2.59961 5.80586 5.71919 2.68628 9.53202 2.68628H90.4679C94.2807 2.68628 97.4003 5.80586 97.4003 9.61869V90.5546C97.4003 94.3674 94.2807 97.487 90.4679 97.487" fill="#F4A00B"/>
<path d="M90.2946 99.9134H9.53206C4.33276 99.9134 0 95.5806 0 90.3813V9.61873C0 4.41943 4.33276 0.0866699 9.53206 0.0866699H90.4679C95.6672 0.0866699 100 4.41943 100 9.61873V90.5546C99.8267 95.7539 95.6672 99.9134 90.2946 99.9134ZM9.53206 5.28598C7.10572 5.28598 5.19931 7.19239 5.19931 9.61873V90.5546C5.19931 92.981 7.10572 94.8874 9.53206 94.8874H90.4679C92.8943 94.8874 94.8007 92.981 94.8007 90.5546V9.61873C94.8007 7.19239 92.8943 5.28598 90.4679 5.28598H9.53206Z" fill="#F7B208"/>
<path d="M43.6749 37.3484H40.0353C38.9955 37.3484 38.3022 38.0416 38.3022 39.0815V49.1335H28.2502V39.0815C28.2502 38.0416 27.557 37.3484 26.5171 37.3484H22.8776C21.8378 37.3484 21.1445 38.0416 21.1445 39.0815V67.1577C21.1445 68.1976 21.8378 68.8908 22.8776 68.8908H26.5171C27.557 68.8908 28.2502 68.1976 28.2502 67.1577V55.7193H38.3022V67.1577C38.3022 68.1976 38.9955 68.8908 40.0353 68.8908H43.6749C44.7147 68.8908 45.408 68.1976 45.408 67.1577V39.0815C45.408 38.2149 44.5414 37.3484 43.6749 37.3484Z" fill="#F28F0C"/>
<path d="M74.3502 41.1612C71.5773 38.5615 67.4178 37.175 61.8719 37.175C59.2723 37.175 56.4993 37.3484 53.8996 37.695C53.0331 37.8683 52.3398 38.5615 52.3398 39.4281V66.9844C52.3398 67.851 53.0331 68.5442 53.8996 68.7175C55.9794 68.8908 58.2324 69.0641 60.6587 69.0641C66.5513 69.0641 71.2307 67.5043 74.3502 64.5581C77.2965 61.6118 78.8563 57.4523 78.8563 52.4263C78.8563 47.747 77.2965 43.9341 74.3502 41.1612ZM71.5773 52.5997C71.5773 59.1854 68.1111 62.825 61.352 62.825C60.6587 62.825 59.9655 62.825 59.4456 62.825V43.7608C60.1388 43.7608 61.0054 43.5875 61.8719 43.5875C65.1648 43.5875 67.5911 44.4541 69.3242 46.0139C70.7107 47.5737 71.5773 49.6534 71.5773 52.5997Z" fill="#F28F0C"/>
<path d="M43.6749 34.2288H40.0353C38.9955 34.2288 38.3022 34.922 38.3022 35.9619V46.0139H28.2502V35.9619C28.2502 34.922 27.557 34.2288 26.5171 34.2288H22.8776C21.8378 34.2288 21.1445 34.922 21.1445 35.9619V64.0381C21.1445 65.078 21.8378 65.7712 22.8776 65.7712H26.5171C27.557 65.7712 28.2502 65.078 28.2502 64.0381V52.5996H38.3022V64.0381C38.3022 65.078 38.9955 65.7712 40.0353 65.7712H43.6749C44.7147 65.7712 45.408 65.078 45.408 64.0381V35.9619C45.408 34.922 44.5414 34.2288 43.6749 34.2288Z" fill="#333B3D"/>
<path d="M43.6734 34.2288H40.0339C38.994 34.2288 38.3008 34.922 38.3008 35.9619V45.3206L45.4065 52.4263V35.9619C45.4065 34.922 44.5399 34.2288 43.6734 34.2288Z" fill="black"/>
<path d="M74.3502 38.0417C71.5773 35.442 67.4178 34.0555 61.8719 34.0555C59.2723 34.0555 56.4993 34.2289 53.8996 34.5755C53.0331 34.7488 52.3398 35.442 52.3398 36.3086V63.8649C52.3398 64.7315 53.0331 65.4247 53.8996 65.598C55.9794 65.7713 58.2324 65.9446 60.6587 65.9446C66.5513 65.9446 71.2307 64.3849 74.3502 61.4386C77.2965 58.4923 78.8563 54.3329 78.8563 49.3069C78.8563 44.4542 77.2965 40.6413 74.3502 38.0417ZM71.5773 49.4802C71.5773 56.066 68.1111 59.7055 61.352 59.7055C60.6587 59.7055 59.9655 59.7055 59.4456 59.7055V40.6413C60.1388 40.6413 61.0054 40.468 61.8719 40.468C65.1648 40.468 67.5911 41.3346 69.3242 42.8944C70.7107 44.2809 71.5773 46.5339 71.5773 49.4802Z" fill="#333B3D"/>
<path d="M61.6981 34.0555C59.0984 34.0555 56.3255 34.2289 53.7258 34.5755C52.8593 34.7488 52.166 35.442 52.166 36.3086V59.3589L58.7518 65.9446C59.2717 65.9446 59.7917 65.9446 60.4849 65.9446C66.3775 65.9446 71.0568 64.3849 74.1764 61.4386C77.1227 58.4923 78.6825 54.3329 78.6825 49.3069C78.6825 44.4542 77.1227 40.6413 74.1764 38.0417C71.4034 35.2687 67.244 34.0555 61.6981 34.0555ZM61.3515 59.5322C60.6582 59.5322 59.965 59.5322 59.445 59.5322V40.468C60.1383 40.468 61.0048 40.2947 61.8714 40.2947C65.1643 40.2947 67.5906 41.1613 69.3237 42.7211C70.8835 44.2809 71.5768 46.5339 71.5768 49.3069C71.5768 56.066 67.9372 59.5322 61.3515 59.5322Z" fill="black"/>
</svg>
