<svg width="20" height="20" viewBox="0 0 20 20" fill="none" xmlns="http://www.w3.org/2000/svg">
<g clip-path="url(#clip0)">
<path d="M13 17.4586V17.0481C13 16.9352 13.0521 16.8288 13.1413 16.7596C13.3296 16.6135 13.3296 16.3289 13.1413 16.1828C13.0521 16.1136 13 16.0072 13 15.8943V15.4838C13 15.3402 13.1164 15.2239 13.2599 15.2239C13.4034 15.2239 13.5198 15.1075 13.5198 14.9639V14.669C13.5198 14.5254 13.4034 14.409 13.2599 14.409C13.1163 14.409 13 14.2926 13 14.1491V13.3647C13 13.2212 13.1164 13.1048 13.2599 13.1048C13.4034 13.1048 13.5198 12.9884 13.5198 12.8448V11.5199H10.5801V18.2128C10.5801 18.4781 10.6773 18.7341 10.8533 18.9325L11.6343 19.813C11.8554 20.0622 12.2445 20.0622 12.4656 19.813L13.2466 18.9325C13.4227 18.7341 13.5198 18.4781 13.5198 18.2128V17.9785C13.5198 17.8349 13.4034 17.7185 13.2599 17.7185C13.1164 17.7186 13 17.6022 13 17.4586Z" fill="url(#paint0_linear)"/>
<path d="M12.518 11.52V18.4657C12.518 18.7247 12.308 18.9347 12.049 18.9347C11.79 18.9347 11.5801 18.7247 11.5801 18.4657V11.52H12.518Z" fill="url(#paint1_linear)"/>
<path d="M13.5198 14.6691C13.5198 14.5255 13.4035 14.4092 13.2599 14.4092C13.1163 14.4092 13 14.2928 13 14.1492V13.3648C13 13.2213 13.1164 13.1049 13.2599 13.1049C13.4035 13.1049 13.5198 12.9885 13.5198 12.845V11.52H10.5801V12.2134L13.4757 15.109C13.5036 15.0676 13.5199 15.0177 13.5199 14.9641V14.6691H13.5198Z" fill="url(#paint2_linear)"/>
<path d="M12.0502 4.052C9.70769 4.052 7.80859 5.95106 7.80859 8.29365C7.80859 10.6362 9.70765 12.5353 12.0502 12.5353C14.3928 12.5353 16.2919 10.6362 16.2919 8.29365C16.2919 5.95106 14.3928 4.052 12.0502 4.052ZM12.0502 7.88518C11.3861 7.88518 10.8476 7.34706 10.8476 6.68251C10.8476 6.01839 11.3861 5.48031 12.0502 5.48031C12.7144 5.48031 13.2529 6.01843 13.2529 6.68251C13.2529 7.34706 12.7144 7.88518 12.0502 7.88518Z" fill="url(#paint3_linear)"/>
<path d="M12.051 4.79346C10.1178 4.79346 8.55078 6.36048 8.55078 8.29365C8.55078 10.2268 10.1178 11.7938 12.051 11.7938C13.9842 11.7938 15.5512 10.2268 15.5512 8.29365C15.5512 6.36048 13.9842 4.79346 12.051 4.79346ZM12.051 7.88518C11.3869 7.88518 10.8483 7.34706 10.8483 6.68252C10.8483 6.0184 11.3869 5.48032 12.051 5.48032C12.7151 5.48032 13.2536 6.01844 13.2536 6.68252C13.2536 7.34706 12.7151 7.88518 12.051 7.88518Z" fill="url(#paint4_linear)"/>
<path d="M12.0502 4.052C9.70769 4.052 7.80859 5.95106 7.80859 8.29365C7.80859 10.6362 9.70765 12.5353 12.0502 12.5353C14.3928 12.5353 16.2919 10.6362 16.2919 8.29365C16.2919 5.95106 14.3928 4.052 12.0502 4.052ZM12.0502 7.88518C11.3861 7.88518 10.8476 7.34706 10.8476 6.68251C10.8476 6.01839 11.3861 5.48031 12.0502 5.48031C12.7144 5.48031 13.2529 6.01843 13.2529 6.68251C13.2529 7.34706 12.7144 7.88518 12.0502 7.88518Z" fill="url(#paint5_linear)"/>
<path d="M5.11387 14.9926L5.40414 14.7023C5.48391 14.6225 5.59606 14.5842 5.70798 14.5983C5.94453 14.6282 6.14575 14.4269 6.11587 14.1904C6.10175 14.0785 6.14014 13.9663 6.21991 13.8865L6.51018 13.5963C6.61171 13.4947 6.7763 13.4947 6.87779 13.5963C6.97932 13.6978 7.14391 13.6978 7.2454 13.5963L7.45391 13.3878C7.55544 13.2862 7.55544 13.1216 7.45391 13.0202C7.35238 12.9186 7.35238 12.754 7.45391 12.6526L8.00857 12.0979C8.1101 11.9964 8.27469 11.9964 8.37618 12.0979C8.47771 12.1994 8.6423 12.1994 8.74379 12.0979L9.68065 11.161L7.60191 9.08228L2.86944 13.8147C2.68187 14.0023 2.56955 14.2521 2.55371 14.5169L2.48344 15.6917C2.46355 16.0242 2.73873 16.2994 3.07124 16.2795L4.24606 16.2092C4.51085 16.1934 4.76061 16.0811 4.94818 15.8935L5.11387 15.7278C5.2154 15.6263 5.2154 15.4617 5.11387 15.3602C5.01234 15.2587 5.01234 15.0941 5.11387 14.9926Z" fill="url(#paint6_linear)"/>
<path d="M8.97163 10.4532L4.0603 15.3645C3.87716 15.5477 3.58026 15.5477 3.39712 15.3645C3.21398 15.1814 3.21398 14.8845 3.39712 14.7014L8.30845 9.79004L8.97163 10.4532Z" fill="url(#paint7_linear)"/>
<path d="M13.9206 4.84096C12.2642 3.18452 9.57849 3.18452 7.92203 4.84096C6.26556 6.49739 6.26559 9.18308 7.92203 10.8395C9.57846 12.496 12.2641 12.496 13.9206 10.8395C15.5771 9.18312 15.5771 6.49739 13.9206 4.84096ZM11.2102 7.55139C10.7406 7.08178 10.7403 6.32049 11.2102 5.85056C11.6798 5.38096 12.4411 5.38131 12.9107 5.85088C13.3803 6.32049 13.3806 7.08178 12.911 7.55139C12.4411 8.02131 11.6797 8.021 11.2102 7.55139Z" fill="url(#paint8_linear)"/>
<path d="M13.3972 5.3652C12.0302 3.99822 9.81409 3.99822 8.44711 5.3652C7.08013 6.73218 7.08013 8.94826 8.44711 10.3152C9.81409 11.6822 12.0302 11.6822 13.3972 10.3152C14.7641 8.94826 14.7641 6.73214 13.3972 5.3652ZM11.211 7.55136C10.7414 7.08175 10.7411 6.32046 11.211 5.85053C11.6806 5.38093 12.4419 5.38128 12.9115 5.85085C13.3811 6.32046 13.3814 7.08175 12.9118 7.55136C12.4419 8.02128 11.6806 8.02097 11.211 7.55136Z" fill="url(#paint9_linear)"/>
<path d="M12.8125 7.64114L15.6732 10.5018C16.0661 9.85859 16.2926 9.10267 16.2926 8.29377C16.2926 7.73055 16.1826 7.1931 15.9832 6.70142C15.6132 7.05393 14.6806 7.69259 12.8125 7.64114Z" fill="url(#paint10_linear)"/>
<path d="M13.6514 0C11.558 0 9.84754 1.67314 9.78711 3.75282C10.3497 3.59718 10.9376 3.55945 11.5126 3.64004C11.6258 2.55992 12.5417 1.71518 13.6514 1.71518C14.8379 1.71518 15.8026 2.68039 15.8026 3.86643C15.8026 4.69957 15.3262 5.4238 14.632 5.78098C14.3379 5.93235 14.0043 6.01769 13.6514 6.01769C13.4104 6.01769 13.1788 5.9778 12.9623 5.90447H12.9619C12.7081 5.81827 12.4757 5.6858 12.2741 5.51769C11.9002 5.45035 11.5006 5.56141 11.2116 5.85043C11.0156 6.04639 10.9016 6.29294 10.8694 6.54765C11.3865 7.08537 12.0584 7.47341 12.8118 7.64106C13.0824 7.7011 13.3633 7.73282 13.6514 7.73282C14.1805 7.73282 14.6852 7.62604 15.1449 7.43267C16.5376 6.84737 17.5178 5.46922 17.5178 3.86639C17.5178 1.73447 15.7833 0 13.6514 0V0Z" fill="url(#paint11_linear)"/>
<path d="M16.6271 3.8665C16.6271 2.22407 15.2957 0.892578 13.6532 0.892578C12.0988 0.892578 10.8237 2.08536 10.6914 3.60548C10.9656 3.59058 11.2409 3.60187 11.5133 3.64007C11.6265 2.55995 12.5424 1.71521 13.6521 1.71521C14.8386 1.71521 15.8034 2.68042 15.8034 3.86646C15.8034 4.6996 15.327 5.42383 14.6328 5.78101C14.3387 5.93238 14.0051 6.01772 13.6521 6.01772C13.4112 6.01772 13.1796 5.97783 12.9631 5.9045H12.9627C12.7088 5.8183 12.4764 5.68583 12.2749 5.51772C11.9543 5.45999 11.6151 5.53379 11.3427 5.73803C11.8879 6.41034 12.7202 6.84034 13.6532 6.84034C15.2957 6.84042 16.6271 5.50897 16.6271 3.8665Z" fill="url(#paint12_linear)"/>
</g>
<defs>
<linearGradient id="paint0_linear" x1="10.7628" y1="15.7599" x2="13.1121" y2="15.7599" gradientUnits="userSpaceOnUse">
<stop stop-color="#FFDA2D"/>
<stop offset="1" stop-color="#FDBF00"/>
</linearGradient>
<linearGradient id="paint1_linear" x1="13.0265" y1="15.2273" x2="11.5396" y2="15.2273" gradientUnits="userSpaceOnUse">
<stop stop-color="#FFDA2D"/>
<stop offset="1" stop-color="#FDBF00"/>
</linearGradient>
<linearGradient id="paint2_linear" x1="12.915" y1="14.0429" x2="12.0003" y2="11.7417" gradientUnits="userSpaceOnUse">
<stop stop-color="#FF9100" stop-opacity="0"/>
<stop offset="1" stop-color="#FF9100"/>
</linearGradient>
<linearGradient id="paint3_linear" x1="10.1431" y1="10.2008" x2="18.7219" y2="1.62201" gradientUnits="userSpaceOnUse">
<stop stop-color="#FFDA2D"/>
<stop offset="1" stop-color="#FDBF00"/>
</linearGradient>
<linearGradient id="paint4_linear" x1="13.733" y1="6.61161" x2="5.61486" y2="14.7298" gradientUnits="userSpaceOnUse">
<stop stop-color="#FFDA2D"/>
<stop offset="1" stop-color="#FDBF00"/>
</linearGradient>
<linearGradient id="paint5_linear" x1="15.2465" y1="11.4899" x2="12.3699" y2="8.61329" gradientUnits="userSpaceOnUse">
<stop stop-color="#FF9100" stop-opacity="0"/>
<stop offset="1" stop-color="#FF9100"/>
</linearGradient>
<linearGradient id="paint6_linear" x1="4.72769" y1="12.2131" x2="6.38864" y2="13.874" gradientUnits="userSpaceOnUse">
<stop stop-color="#FFDA2D"/>
<stop offset="1" stop-color="#FDBF00"/>
</linearGradient>
<linearGradient id="paint7_linear" x1="6.70401" y1="13.4376" x2="5.6528" y2="12.3864" gradientUnits="userSpaceOnUse">
<stop stop-color="#FFDA2D"/>
<stop offset="1" stop-color="#FDBF00"/>
</linearGradient>
<linearGradient id="paint8_linear" x1="8.21825" y1="7.84446" x2="20.3487" y2="7.84446" gradientUnits="userSpaceOnUse">
<stop stop-color="#FFDA2D"/>
<stop offset="1" stop-color="#FDBF00"/>
</linearGradient>
<linearGradient id="paint9_linear" x1="13.2942" y1="7.84443" x2="1.81513" y2="7.84443" gradientUnits="userSpaceOnUse">
<stop stop-color="#FFDA2D"/>
<stop offset="1" stop-color="#FDBF00"/>
</linearGradient>
<linearGradient id="paint10_linear" x1="15.0541" y1="9.17012" x2="14.4538" y2="7.32632" gradientUnits="userSpaceOnUse">
<stop stop-color="#FF9100" stop-opacity="0"/>
<stop offset="1" stop-color="#FF9100"/>
</linearGradient>
<linearGradient id="paint11_linear" x1="9.78711" y1="3.86643" x2="17.5178" y2="3.86643" gradientUnits="userSpaceOnUse">
<stop stop-color="#0B799D"/>
<stop offset="1" stop-color="#07485E"/>
</linearGradient>
<linearGradient id="paint12_linear" x1="17.488" y1="7.70093" x2="10.8235" y2="1.03647" gradientUnits="userSpaceOnUse">
<stop stop-color="#0B799D"/>
<stop offset="1" stop-color="#07485E"/>
</linearGradient>
<clipPath id="clip0">
<rect width="20" height="20" fill="white"/>
</clipPath>
</defs>
</svg>
