<svg width="65" height="65" viewBox="0 0 65 65" fill="none" xmlns="http://www.w3.org/2000/svg">
<path d="M32.5 65C50.4493 65 65 50.4493 65 32.5C65 14.5507 50.4493 0 32.5 0C14.5507 0 0 14.5507 0 32.5C0 50.4493 14.5507 65 32.5 65Z" fill="#EBBA16"/>
<path d="M49.3104 32.5L24.6553 49.3104V32.806V15.6897L49.3104 32.5Z" fill="white"/>
<path d="M24.6554 50.431C24.476 50.431 24.2956 50.3885 24.132 50.301C23.7644 50.1072 23.5347 49.7261 23.5347 49.3104V15.6897C23.5347 15.2739 23.7644 14.8929 24.132 14.699C24.4996 14.504 24.9434 14.5309 25.2874 14.764L49.9426 31.5743C50.2474 31.7828 50.4312 32.1291 50.4312 32.5C50.4312 32.871 50.2474 33.2173 49.9415 33.4257L25.2863 50.236C25.0969 50.3649 24.8761 50.431 24.6554 50.431ZM25.776 17.8111V47.19L47.3213 32.5L25.776 17.8111Z" fill="white"/>
</svg>
