<svg width="60" height="60" viewBox="0 0 60 60" fill="none" xmlns="http://www.w3.org/2000/svg">
<path d="M30 0.00100708C13.4332 0.00100708 0 13.4316 0 29.9997C0 46.5678 13.4319 59.9984 30 59.9984C46.5694 59.9984 60 46.5678 60 29.9997C60 13.4316 46.5694 0.00100708 30 0.00100708ZM30 8.97096C35.4819 8.97096 39.924 13.4144 39.924 18.8937C39.924 24.3742 35.4819 28.8163 30 28.8163C24.5208 28.8163 20.0786 24.3742 20.0786 18.8937C20.0786 13.4144 24.5208 8.97096 30 8.97096ZM29.9934 52.1551C24.526 52.1551 19.5186 50.164 15.6562 46.8683C14.7154 46.0658 14.1724 44.889 14.1724 43.6543C14.1724 38.0973 18.6699 33.6499 24.2282 33.6499H35.7744C41.334 33.6499 45.8144 38.0973 45.8144 43.6543C45.8144 44.8903 45.2741 46.0644 44.3319 46.867C40.4709 50.164 35.4621 52.1551 29.9934 52.1551Z" fill="#0F4C75"/>
</svg>
