<svg width="20" height="20" viewBox="0 0 20 20" fill="none" xmlns="http://www.w3.org/2000/svg">
<g clip-path="url(#clip0)">
<path d="M17.1434 0C16.7489 0 16.4291 0.319796 16.4291 0.714299V3.32356C12.7517 -0.236719 6.8844 -0.141713 3.32412 3.53567C1.64625 5.26875 0.710215 7.58776 0.714861 9.99998C0.714861 10.3945 1.03466 10.7143 1.42916 10.7143C1.82366 10.7143 2.14342 10.3945 2.14342 9.99998C2.1443 5.66061 5.66272 2.14353 10.0021 2.1444C12.206 2.14482 14.3083 3.07081 15.7963 4.69641L12.632 5.75139C12.2573 5.87607 12.0545 6.28091 12.1792 6.65566C12.3039 7.03041 12.7087 7.23318 13.0834 7.1085L17.3692 5.67995C17.6617 5.58252 17.8587 5.3083 17.8577 4.99997V0.714257C17.8577 0.319796 17.5379 0 17.1434 0Z" fill="black"/>
<path d="M18.5712 9.28564C18.1767 9.28564 17.8569 9.60544 17.8569 9.99994C17.856 14.3393 14.3376 17.8564 9.9982 17.8555C7.79436 17.8551 5.69206 16.9291 4.20403 15.3035L7.3683 14.2485C7.74305 14.1238 7.94583 13.719 7.82115 13.3443C7.69647 12.9695 7.29163 12.7667 6.91688 12.8914L2.63117 14.32C2.33862 14.4174 2.14162 14.6916 2.14258 14.9999V19.2857C2.14258 19.6802 2.46238 20 2.85688 20C3.25138 20 3.57118 19.6802 3.57118 19.2857V16.6764C7.24861 20.2366 13.1159 20.1417 16.6762 16.4642C18.354 14.7312 19.2901 12.4122 19.2854 9.99994C19.2855 9.60544 18.9657 9.28564 18.5712 9.28564Z" fill="black"/>
</g>
<defs>
<clipPath id="clip0">
<rect width="20" height="20" fill="white"/>
</clipPath>
</defs>
</svg>
